<svg xmlns="http://www.w3.org/2000/svg" xmlns:xlink="http://www.w3.org/1999/xlink" contentStyleType="text/css" data-diagram-type="CLASS" height="512px" preserveAspectRatio="none" style="width:719px;height:512px;background:#FFFFFF;" version="1.1" viewBox="0 0 719 512" width="719px" zoomAndPan="magnify"><?plantuml 1.2026.5?><defs/><g><g class="title" data-source-line="1"><text fill="#000000" font-family="sans-serif" font-size="14" font-weight="700" lengthAdjust="spacing" textLength="145.4551" x="283.3533" y="22.9951">Facade - Checkout</text></g><!--class ICheckoutFacade--><g class="entity" data-qualified-name="ICheckoutFacade" data-source-line="3" id="ent0001"><rect fill="#F1F1F1" height="96.8906" rx="2.5" ry="2.5" style="stroke:#181818;stroke-width:0.5;" width="612.79" x="7" y="152.2969"/><ellipse cx="248.8794" cy="168.2969" fill="#B4A7E5" rx="11" ry="11" style="stroke:#181818;stroke-width:1;"/><path d="M244.8013,164.0625 L244.8013,161.9063 L252.1919,161.9063 L252.1919,164.0625 L249.7231,164.0625 L249.7231,172.1406 L252.1919,172.1406 L252.1919,174.2969 L244.8013,174.2969 L244.8013,172.1406 L247.27,172.1406 L247.27,164.0625 L244.8013,164.0625 Z " fill="#000000"/><text fill="#000000" font-family="sans-serif" font-size="14" font-style="italic" lengthAdjust="spacing" textLength="120.5313" x="269.3794" y="173.1436">ICheckoutFacade</text><line style="stroke:#181818;stroke-width:0.5;" x1="8" x2="618.79" y1="184.2969" y2="184.2969"/><line style="stroke:#181818;stroke-width:0.5;" x1="8" x2="618.79" y1="192.2969" y2="192.2969"/><g data-visibility-modifier="PUBLIC_METHOD"><ellipse cx="18" cy="205.9453" fill="#84BE84" rx="3" ry="3" style="stroke:#038048;stroke-width:1;"/></g><text fill="#000000" font-family="sans-serif" font-size="14" lengthAdjust="spacing" textLength="260.9346" x="27" y="209.292">CalcularFrete(carrinho, cep): decimal</text><g data-visibility-modifier="PUBLIC_METHOD"><ellipse cx="18" cy="222.2422" fill="#84BE84" rx="3" ry="3" style="stroke:#038048;stroke-width:1;"/></g><text fill="#000000" font-family="sans-serif" font-size="14" lengthAdjust="spacing" textLength="213.999" x="27" y="225.5889">CalcularPrazo(carrinho): string</text><g data-visibility-modifier="PUBLIC_METHOD"><ellipse cx="18" cy="238.5391" fill="#84BE84" rx="3" ry="3" style="stroke:#038048;stroke-width:1;"/></g><text fill="#000000" font-family="sans-serif" font-size="14" lengthAdjust="spacing" textLength="586.79" x="27" y="241.8857">FinalizarAsync(usuarioEmail, carrinho, request, cancellationToken): CheckoutResult</text></g><!--class CheckoutFacade--><g class="entity" data-qualified-name="CheckoutFacade" data-source-line="9" id="ent0002"><rect fill="#F1F1F1" height="80.5938" rx="2.5" ry="2.5" style="stroke:#181818;stroke-width:0.5;" width="241.1611" x="192.81" y="309.1869"/><ellipse cx="250.9394" cy="325.1869" fill="#ADD1B2" rx="11" ry="11" style="stroke:#181818;stroke-width:1;"/><path d="M253.9081,330.8275 Q253.33,331.1244 252.6894,331.265 Q252.0488,331.4213 251.3456,331.4213 Q248.8456,331.4213 247.5175,329.7806 Q246.205,328.1244 246.205,324.9994 Q246.205,321.8744 247.5175,320.2181 Q248.8456,318.5619 251.3456,318.5619 Q252.0488,318.5619 252.6894,318.7181 Q253.3456,318.8744 253.9081,319.1713 L253.9081,321.89 Q253.2831,321.3119 252.6894,321.0463 Q252.0956,320.765 251.4706,320.765 Q250.1269,320.765 249.4394,321.8431 Q248.7519,322.9056 248.7519,324.9994 Q248.7519,327.0931 249.4394,328.1713 Q250.1269,329.2338 251.4706,329.2338 Q252.0956,329.2338 252.6894,328.9681 Q253.2831,328.6869 253.9081,328.1088 L253.9081,330.8275 Z " fill="#000000"/><text fill="#000000" font-family="sans-serif" font-size="14" lengthAdjust="spacing" textLength="116.4023" x="271.4394" y="330.0336">CheckoutFacade</text><line style="stroke:#181818;stroke-width:0.5;" x1="193.81" x2="432.9711" y1="341.1869" y2="341.1869"/><g data-visibility-modifier="PRIVATE_FIELD"><rect fill="none" height="6" style="stroke:#C82930;stroke-width:1;" width="6" x="200.81" y="351.8353"/></g><text fill="#000000" font-family="sans-serif" font-size="14" lengthAdjust="spacing" textLength="215.1611" x="212.81" y="358.182">context: ApplicationDbContext</text><line style="stroke:#181818;stroke-width:0.5;" x1="193.81" x2="432.9711" y1="365.4838" y2="365.4838"/><g data-visibility-modifier="PUBLIC_METHOD"><ellipse cx="203.81" cy="379.1322" fill="#84BE84" rx="3" ry="3" style="stroke:#038048;stroke-width:1;"/></g><text fill="#000000" font-family="sans-serif" font-size="14" lengthAdjust="spacing" textLength="124.8584" x="212.81" y="382.4789">FinalizarAsync(...)</text></g><!--class ApiCheckoutController--><g class="entity" data-qualified-name="ApiCheckoutController" data-source-line="14" id="ent0003"><rect fill="#F1F1F1" height="48" rx="2.5" ry="2.5" style="stroke:#181818;stroke-width:0.5;" width="189.5205" x="218.63" y="44.2969"/><ellipse cx="233.63" cy="60.2969" fill="#ADD1B2" rx="11" ry="11" style="stroke:#181818;stroke-width:1;"/><path d="M236.5988,65.9375 Q236.0206,66.2344 235.38,66.375 Q234.7394,66.5313 234.0363,66.5313 Q231.5363,66.5313 230.2081,64.8906 Q228.8956,63.2344 228.8956,60.1094 Q228.8956,56.9844 230.2081,55.3281 Q231.5363,53.6719 234.0363,53.6719 Q234.7394,53.6719 235.38,53.8281 Q236.0363,53.9844 236.5988,54.2813 L236.5988,57 Q235.9738,56.4219 235.38,56.1563 Q234.7863,55.875 234.1613,55.875 Q232.8175,55.875 232.13,56.9531 Q231.4425,58.0156 231.4425,60.1094 Q231.4425,62.2031 232.13,63.2813 Q232.8175,64.3438 234.1613,64.3438 Q234.7863,64.3438 235.38,64.0781 Q235.9738,63.7969 236.5988,63.2188 L236.5988,65.9375 Z " fill="#000000"/><text fill="#000000" font-family="sans-serif" font-size="14" lengthAdjust="spacing" textLength="157.5205" x="247.63" y="65.1436">ApiCheckoutController</text><line style="stroke:#181818;stroke-width:0.5;" x1="219.63" x2="407.1505" y1="76.2969" y2="76.2969"/><line style="stroke:#181818;stroke-width:0.5;" x1="219.63" x2="407.1505" y1="84.2969" y2="84.2969"/></g><!--class CarrinhoItem--><g class="entity" data-qualified-name="CarrinhoItem" data-source-line="15" id="ent0004"><rect fill="#F1F1F1" height="48" rx="2.5" ry="2.5" style="stroke:#181818;stroke-width:0.5;" width="123.9365" x="49.43" y="449.7769"/><ellipse cx="64.43" cy="465.7769" fill="#ADD1B2" rx="11" ry="11" style="stroke:#181818;stroke-width:1;"/><path d="M67.3988,471.4175 Q66.8206,471.7144 66.18,471.855 Q65.5394,472.0113 64.8363,472.0113 Q62.3363,472.0113 61.0081,470.3706 Q59.6956,468.7144 59.6956,465.5894 Q59.6956,462.4644 61.0081,460.8081 Q62.3363,459.1519 64.8363,459.1519 Q65.5394,459.1519 66.18,459.3081 Q66.8363,459.4644 67.3988,459.7613 L67.3988,462.48 Q66.7738,461.9019 66.18,461.6363 Q65.5863,461.355 64.9613,461.355 Q63.6175,461.355 62.93,462.4331 Q62.2425,463.4956 62.2425,465.5894 Q62.2425,467.6831 62.93,468.7613 Q63.6175,469.8238 64.9613,469.8238 Q65.5863,469.8238 66.18,469.5581 Q66.7738,469.2769 67.3988,468.6988 L67.3988,471.4175 Z " fill="#000000"/><text fill="#000000" font-family="sans-serif" font-size="14" lengthAdjust="spacing" textLength="91.9365" x="78.43" y="470.6236">CarrinhoItem</text><line style="stroke:#181818;stroke-width:0.5;" x1="50.43" x2="172.3665" y1="481.7769" y2="481.7769"/><line style="stroke:#181818;stroke-width:0.5;" x1="50.43" x2="172.3665" y1="489.7769" y2="489.7769"/></g><!--class Pedido--><g class="entity" data-qualified-name="Pedido" data-source-line="16" id="ent0005"><rect fill="#F1F1F1" height="48" rx="2.5" ry="2.5" style="stroke:#181818;stroke-width:0.5;" width="79.2842" x="208.75" y="449.7769"/><ellipse cx="223.75" cy="465.7769" fill="#ADD1B2" rx="11" ry="11" style="stroke:#181818;stroke-width:1;"/><path d="M226.7188,471.4175 Q226.1406,471.7144 225.5,471.855 Q224.8594,472.0113 224.1563,472.0113 Q221.6563,472.0113 220.3281,470.3706 Q219.0156,468.7144 219.0156,465.5894 Q219.0156,462.4644 220.3281,460.8081 Q221.6563,459.1519 224.1563,459.1519 Q224.8594,459.1519 225.5,459.3081 Q226.1563,459.4644 226.7188,459.7613 L226.7188,462.48 Q226.0938,461.9019 225.5,461.6363 Q224.9063,461.355 224.2813,461.355 Q222.9375,461.355 222.25,462.4331 Q221.5625,463.4956 221.5625,465.5894 Q221.5625,467.6831 222.25,468.7613 Q222.9375,469.8238 224.2813,469.8238 Q224.9063,469.8238 225.5,469.5581 Q226.0938,469.2769 226.7188,468.6988 L226.7188,471.4175 Z " fill="#000000"/><text fill="#000000" font-family="sans-serif" font-size="14" lengthAdjust="spacing" textLength="47.2842" x="237.75" y="470.6236">Pedido</text><line style="stroke:#181818;stroke-width:0.5;" x1="209.75" x2="287.0342" y1="481.7769" y2="481.7769"/><line style="stroke:#181818;stroke-width:0.5;" x1="209.75" x2="287.0342" y1="489.7769" y2="489.7769"/></g><!--class PedidoItem--><g class="entity" data-qualified-name="PedidoItem" data-source-line="17" id="ent0006"><rect fill="#F1F1F1" height="48" rx="2.5" ry="2.5" style="stroke:#181818;stroke-width:0.5;" width="111.1533" x="322.82" y="449.7769"/><ellipse cx="337.82" cy="465.7769" fill="#ADD1B2" rx="11" ry="11" style="stroke:#181818;stroke-width:1;"/><path d="M340.7888,471.4175 Q340.2106,471.7144 339.57,471.855 Q338.9294,472.0113 338.2263,472.0113 Q335.7263,472.0113 334.3981,470.3706 Q333.0856,468.7144 333.0856,465.5894 Q333.0856,462.4644 334.3981,460.8081 Q335.7263,459.1519 338.2263,459.1519 Q338.9294,459.1519 339.57,459.3081 Q340.2263,459.4644 340.7888,459.7613 L340.7888,462.48 Q340.1638,461.9019 339.57,461.6363 Q338.9763,461.355 338.3513,461.355 Q337.0075,461.355 336.32,462.4331 Q335.6325,463.4956 335.6325,465.5894 Q335.6325,467.6831 336.32,468.7613 Q337.0075,469.8238 338.3513,469.8238 Q338.9763,469.8238 339.57,469.5581 Q340.1638,469.2769 340.7888,468.6988 L340.7888,471.4175 Z " fill="#000000"/><text fill="#000000" font-family="sans-serif" font-size="14" lengthAdjust="spacing" textLength="79.1533" x="351.82" y="470.6236">PedidoItem</text><line style="stroke:#181818;stroke-width:0.5;" x1="323.82" x2="432.9733" y1="481.7769" y2="481.7769"/><line style="stroke:#181818;stroke-width:0.5;" x1="323.82" x2="432.9733" y1="489.7769" y2="489.7769"/></g><!--class Produto--><g class="entity" data-qualified-name="Produto" data-source-line="18" id="ent0007"><rect fill="#F1F1F1" height="48" rx="2.5" ry="2.5" style="stroke:#181818;stroke-width:0.5;" width="86.5781" x="469.11" y="449.7769"/><ellipse cx="484.11" cy="465.7769" fill="#ADD1B2" rx="11" ry="11" style="stroke:#181818;stroke-width:1;"/><path d="M487.0788,471.4175 Q486.5006,471.7144 485.86,471.855 Q485.2194,472.0113 484.5163,472.0113 Q482.0163,472.0113 480.6881,470.3706 Q479.3756,468.7144 479.3756,465.5894 Q479.3756,462.4644 480.6881,460.8081 Q482.0163,459.1519 484.5163,459.1519 Q485.2194,459.1519 485.86,459.3081 Q486.5163,459.4644 487.0788,459.7613 L487.0788,462.48 Q486.4538,461.9019 485.86,461.6363 Q485.2663,461.355 484.6413,461.355 Q483.2975,461.355 482.61,462.4331 Q481.9225,463.4956 481.9225,465.5894 Q481.9225,467.6831 482.61,468.7613 Q483.2975,469.8238 484.6413,469.8238 Q485.2663,469.8238 485.86,469.5581 Q486.4538,469.2769 487.0788,468.6988 L487.0788,471.4175 Z " fill="#000000"/><text fill="#000000" font-family="sans-serif" font-size="14" lengthAdjust="spacing" textLength="54.5781" x="498.11" y="470.6236">Produto</text><line style="stroke:#181818;stroke-width:0.5;" x1="470.11" x2="554.6881" y1="481.7769" y2="481.7769"/><line style="stroke:#181818;stroke-width:0.5;" x1="470.11" x2="554.6881" y1="489.7769" y2="489.7769"/></g><g class="entity" data-qualified-name="GMN14" data-source-line="28" id="ent0015"><path d="M468.63,321.7769 L468.63,345.4769 L434.43,349.4769 L468.63,353.4769 L468.63,377.1753 A0,0 0 0 0 468.63,377.1753 L704.1617,377.1753 A0,0 0 0 0 704.1617,377.1753 L704.1617,331.7769 L694.1617,321.7769 L468.63,321.7769 A0,0 0 0 0 468.63,321.7769" fill="#FEFFDD" style="stroke:#181818;stroke-width:0.5;"/><path d="M694.1617,321.7769 L694.1617,331.7769 L704.1617,331.7769 L694.1617,321.7769" fill="#FEFFDD" style="stroke:#181818;stroke-width:0.5;"/><text fill="#000000" font-family="sans-serif" font-size="13" lengthAdjust="spacing" textLength="214.5317" x="474.63" y="338.8438">Centraliza valida&#231;&#227;o de carrinho,</text><text fill="#000000" font-family="sans-serif" font-size="13" lengthAdjust="spacing" textLength="191.915" x="474.63" y="353.9766">estoque, frete, split, pedido e</text><text fill="#000000" font-family="sans-serif" font-size="13" lengthAdjust="spacing" textLength="116.4478" x="474.63" y="369.1094">baixa de estoque.</text></g><!--reverse link ICheckoutFacade to CheckoutFacade--><g class="link" data-entity-1="ent0001" data-entity-2="ent0002" data-link-type="extension" data-source-line="20" id="lnk8"><path codeLine="20" d="M313.4,267.3769 C313.4,286.6269 313.4,290.5769 313.4,308.9269" fill="none" id="ICheckoutFacade-backto-CheckoutFacade" style="stroke:#181818;stroke-width:1;stroke-dasharray:7,7;"/><polygon fill="none" points="313.4,249.3769,307.4,267.3769,319.4,267.3769,313.4,249.3769" style="stroke:#181818;stroke-width:1;stroke-linejoin:miter;stroke-miterlimit:10;"/></g><!--link ApiCheckoutController to ICheckoutFacade--><g class="link" data-entity-1="ent0003" data-entity-2="ent0001" data-link-type="dependency" data-source-line="21" id="lnk9"><path codeLine="21" d="M313.4,92.6169 C313.4,109.1069 313.4,126.7869 313.4,147.0369" fill="none" id="ApiCheckoutController-to-ICheckoutFacade" style="stroke:#181818;stroke-width:1;"/><polygon fill="#181818" points="313.4,152.0369,317.4,143.0369,313.4,147.0369,309.4,143.0369,313.4,152.0369" style="stroke:#181818;stroke-width:1;stroke-linejoin:miter;stroke-miterlimit:10;"/></g><!--link CheckoutFacade to CarrinhoItem--><g class="link" data-entity-1="ent0002" data-entity-2="ent0004" data-link-type="dependency" data-source-line="22" id="lnk10"><path codeLine="22" d="M247.81,390.1869 C215.56,409.7169 182.0576,429.998 154.4476,446.708" fill="none" id="CheckoutFacade-to-CarrinhoItem" style="stroke:#181818;stroke-width:1;"/><polygon fill="#181818" points="150.17,449.2969,159.9408,448.059,154.4476,446.708,155.7986,441.2148,150.17,449.2969" style="stroke:#181818;stroke-width:1;stroke-linejoin:miter;stroke-miterlimit:10;"/></g><!--link CheckoutFacade to Produto--><g class="link" data-entity-1="ent0002" data-entity-2="ent0007" data-link-type="dependency" data-source-line="23" id="lnk11"><path codeLine="23" d="M378,390.1869 C409.78,409.7169 442.7397,429.9696 469.9397,446.6796" fill="none" id="CheckoutFacade-to-Produto" style="stroke:#181818;stroke-width:1;"/><polygon fill="#181818" points="474.2,449.2969,468.6253,441.1776,469.9397,446.6796,464.4377,447.994,474.2,449.2969" style="stroke:#181818;stroke-width:1;stroke-linejoin:miter;stroke-miterlimit:10;"/></g><!--link CheckoutFacade to Pedido--><g class="link" data-entity-1="ent0002" data-entity-2="ent0005" data-link-type="dependency" data-source-line="24" id="lnk12"><path codeLine="24" d="M292.29,390.1869 C281.91,409.7169 272.1084,428.1727 263.2184,444.8827" fill="none" id="CheckoutFacade-to-Pedido" style="stroke:#181818;stroke-width:1;"/><polygon fill="#181818" points="260.87,449.2969,268.6285,443.2301,263.2184,444.8827,261.5658,439.4726,260.87,449.2969" style="stroke:#181818;stroke-width:1;stroke-linejoin:miter;stroke-miterlimit:10;"/></g><!--link CheckoutFacade to PedidoItem--><g class="link" data-entity-1="ent0002" data-entity-2="ent0006" data-link-type="dependency" data-source-line="25" id="lnk13"><path codeLine="25" d="M334.5,390.1869 C344.88,409.7169 354.6816,428.1727 363.5716,444.8827" fill="none" id="CheckoutFacade-to-PedidoItem" style="stroke:#181818;stroke-width:1;"/><polygon fill="#181818" points="365.92,449.2969,365.2242,439.4726,363.5716,444.8827,358.1615,443.2301,365.92,449.2969" style="stroke:#181818;stroke-width:1;stroke-linejoin:miter;stroke-miterlimit:10;"/></g><?plantuml-src TP9DJiCm48NtFiKiMz7a01L2gWALkgiG5vZQqzR2zGJ_e5BWD2muI2-6dIRzYS8gpippcyz-3ZeOWZbAL0G5L5kIhno34De6SckK18kksAe-1S1TXKP6WsxkAD18edFQRda2akhn51H9lKDpBLmwFF1Pc3G-fDKcI-RQej47T3F_OUKe-eXEyzCEjKc6Psj7Rv5yo2KhoHWCckqBlv9DRXtZC_beWlWMGXhq7WRO2ydfRFimXLbT6oqRdyTLTQeE09LbERuupchTcUOjZeqXrqrhOHU1TcrfIKehllcvxZfMCR0G_Kk-_ohB7hmOd0n5yT2FIFJCikG6RQ3VaGorJaVujzDO2ik1mEdDDW2l--WL9TxcJk4zVHGUVuy_dDx99L-HikMKy0JM-KrDmATmKjfrCmD8h53lCMzfXQKWgo2F_GC0?></g></svg>