<svg xmlns="http://www.w3.org/2000/svg" xmlns:xlink="http://www.w3.org/1999/xlink" contentStyleType="text/css" data-diagram-type="CLASS" height="517px" preserveAspectRatio="none" style="width:783px;height:517px;background:#FFFFFF;" version="1.1" viewBox="0 0 783 517" width="783px" zoomAndPan="magnify"><?plantuml 1.2026.5?><defs/><g><g class="title" data-source-line="1"><text fill="#000000" font-family="sans-serif" font-size="14" font-weight="700" lengthAdjust="spacing" textLength="145.4551" x="315.3029" y="22.9951">Facade - Checkout</text></g><!--class ICheckoutFacade--><g class="entity" data-qualified-name="ICheckoutFacade" data-source-line="3" id="ent0001"><rect fill="#F1F1F1" height="96.8906" rx="2.5" ry="2.5" style="stroke:#181818;stroke-width:0.5;" width="612.79" x="7" y="152.2969"/><ellipse cx="248.8794" cy="168.2969" fill="#B4A7E5" rx="11" ry="11" style="stroke:#181818;stroke-width:1;"/><path d="M244.8013,164.0625 L244.8013,161.9063 L252.1919,161.9063 L252.1919,164.0625 L249.7231,164.0625 L249.7231,172.1406 L252.1919,172.1406 L252.1919,174.2969 L244.8013,174.2969 L244.8013,172.1406 L247.27,172.1406 L247.27,164.0625 L244.8013,164.0625 Z " fill="#000000"/><text fill="#000000" font-family="sans-serif" font-size="14" font-style="italic" lengthAdjust="spacing" textLength="120.5313" x="269.3794" y="173.1436">ICheckoutFacade</text><line style="stroke:#181818;stroke-width:0.5;" x1="8" x2="618.79" y1="184.2969" y2="184.2969"/><line style="stroke:#181818;stroke-width:0.5;" x1="8" x2="618.79" y1="192.2969" y2="192.2969"/><g data-visibility-modifier="PUBLIC_METHOD"><ellipse cx="18" cy="205.9453" fill="#84BE84" rx="3" ry="3" style="stroke:#038048;stroke-width:1;"/></g><text fill="#000000" font-family="sans-serif" font-size="14" lengthAdjust="spacing" textLength="260.9346" x="27" y="209.292">CalcularFrete(carrinho, cep): decimal</text><g data-visibility-modifier="PUBLIC_METHOD"><ellipse cx="18" cy="222.2422" fill="#84BE84" rx="3" ry="3" style="stroke:#038048;stroke-width:1;"/></g><text fill="#000000" font-family="sans-serif" font-size="14" lengthAdjust="spacing" textLength="213.999" x="27" y="225.5889">CalcularPrazo(carrinho): string</text><g data-visibility-modifier="PUBLIC_METHOD"><ellipse cx="18" cy="238.5391" fill="#84BE84" rx="3" ry="3" style="stroke:#038048;stroke-width:1;"/></g><text fill="#000000" font-family="sans-serif" font-size="14" lengthAdjust="spacing" textLength="586.79" x="27" y="241.8857">FinalizarAsync(usuarioEmail, carrinho, request, cancellationToken): CheckoutResult</text></g><!--class CheckoutFacade--><g class="entity" data-qualified-name="CheckoutFacade" data-source-line="9" id="ent0002"><rect fill="#F1F1F1" height="80.5938" rx="2.5" ry="2.5" style="stroke:#181818;stroke-width:0.5;" width="241.1611" x="192.81" y="311.7169"/><ellipse cx="250.9394" cy="327.7169" fill="#ADD1B2" rx="11" ry="11" style="stroke:#181818;stroke-width:1;"/><path d="M253.9081,333.3575 Q253.33,333.6544 252.6894,333.795 Q252.0488,333.9513 251.3456,333.9513 Q248.8456,333.9513 247.5175,332.3106 Q246.205,330.6544 246.205,327.5294 Q246.205,324.4044 247.5175,322.7481 Q248.8456,321.0919 251.3456,321.0919 Q252.0488,321.0919 252.6894,321.2481 Q253.3456,321.4044 253.9081,321.7013 L253.9081,324.42 Q253.2831,323.8419 252.6894,323.5763 Q252.0956,323.295 251.4706,323.295 Q250.1269,323.295 249.4394,324.3731 Q248.7519,325.4356 248.7519,327.5294 Q248.7519,329.6231 249.4394,330.7013 Q250.1269,331.7638 251.4706,331.7638 Q252.0956,331.7638 252.6894,331.4981 Q253.2831,331.2169 253.9081,330.6388 L253.9081,333.3575 Z " fill="#000000"/><text fill="#000000" font-family="sans-serif" font-size="14" lengthAdjust="spacing" textLength="116.4023" x="271.4394" y="332.5636">CheckoutFacade</text><line style="stroke:#181818;stroke-width:0.5;" x1="193.81" x2="432.9711" y1="343.7169" y2="343.7169"/><g data-visibility-modifier="PRIVATE_FIELD"><rect fill="none" height="6" style="stroke:#C82930;stroke-width:1;" width="6" x="200.81" y="354.3653"/></g><text fill="#000000" font-family="sans-serif" font-size="14" lengthAdjust="spacing" textLength="215.1611" x="212.81" y="360.712">context: ApplicationDbContext</text><line style="stroke:#181818;stroke-width:0.5;" x1="193.81" x2="432.9711" y1="368.0138" y2="368.0138"/><g data-visibility-modifier="PUBLIC_METHOD"><ellipse cx="203.81" cy="381.6622" fill="#84BE84" rx="3" ry="3" style="stroke:#038048;stroke-width:1;"/></g><text fill="#000000" font-family="sans-serif" font-size="14" lengthAdjust="spacing" textLength="124.8584" x="212.81" y="385.0089">FinalizarAsync(...)</text></g><!--class CarrinhoController--><g class="entity" data-qualified-name="CarrinhoController" data-source-line="14" id="ent0003"><rect fill="#F1F1F1" height="48" rx="2.5" ry="2.5" style="stroke:#181818;stroke-width:0.5;" width="161.2402" x="326.77" y="44.2969"/><ellipse cx="341.77" cy="60.2969" fill="#ADD1B2" rx="11" ry="11" style="stroke:#181818;stroke-width:1;"/><path d="M344.7388,65.9375 Q344.1606,66.2344 343.52,66.375 Q342.8794,66.5313 342.1763,66.5313 Q339.6763,66.5313 338.3481,64.8906 Q337.0356,63.2344 337.0356,60.1094 Q337.0356,56.9844 338.3481,55.3281 Q339.6763,53.6719 342.1763,53.6719 Q342.8794,53.6719 343.52,53.8281 Q344.1763,53.9844 344.7388,54.2813 L344.7388,57 Q344.1138,56.4219 343.52,56.1563 Q342.9263,55.875 342.3013,55.875 Q340.9575,55.875 340.27,56.9531 Q339.5825,58.0156 339.5825,60.1094 Q339.5825,62.2031 340.27,63.2813 Q340.9575,64.3438 342.3013,64.3438 Q342.9263,64.3438 343.52,64.0781 Q344.1138,63.7969 344.7388,63.2188 L344.7388,65.9375 Z " fill="#000000"/><text fill="#000000" font-family="sans-serif" font-size="14" lengthAdjust="spacing" textLength="129.2402" x="355.77" y="65.1436">CarrinhoController</text><line style="stroke:#181818;stroke-width:0.5;" x1="327.77" x2="487.0102" y1="76.2969" y2="76.2969"/><line style="stroke:#181818;stroke-width:0.5;" x1="327.77" x2="487.0102" y1="84.2969" y2="84.2969"/></g><!--class ApiCheckoutController--><g class="entity" data-qualified-name="ApiCheckoutController" data-source-line="15" id="ent0004"><rect fill="#F1F1F1" height="48" rx="2.5" ry="2.5" style="stroke:#181818;stroke-width:0.5;" width="189.5205" x="569.63" y="44.2969"/><ellipse cx="584.63" cy="60.2969" fill="#ADD1B2" rx="11" ry="11" style="stroke:#181818;stroke-width:1;"/><path d="M587.5988,65.9375 Q587.0206,66.2344 586.38,66.375 Q585.7394,66.5313 585.0363,66.5313 Q582.5363,66.5313 581.2081,64.8906 Q579.8956,63.2344 579.8956,60.1094 Q579.8956,56.9844 581.2081,55.3281 Q582.5363,53.6719 585.0363,53.6719 Q585.7394,53.6719 586.38,53.8281 Q587.0363,53.9844 587.5988,54.2813 L587.5988,57 Q586.9738,56.4219 586.38,56.1563 Q585.7863,55.875 585.1613,55.875 Q583.8175,55.875 583.13,56.9531 Q582.4425,58.0156 582.4425,60.1094 Q582.4425,62.2031 583.13,63.2813 Q583.8175,64.3438 585.1613,64.3438 Q585.7863,64.3438 586.38,64.0781 Q586.9738,63.7969 587.5988,63.2188 L587.5988,65.9375 Z " fill="#000000"/><text fill="#000000" font-family="sans-serif" font-size="14" lengthAdjust="spacing" textLength="157.5205" x="598.63" y="65.1436">ApiCheckoutController</text><line style="stroke:#181818;stroke-width:0.5;" x1="570.63" x2="758.1505" y1="76.2969" y2="76.2969"/><line style="stroke:#181818;stroke-width:0.5;" x1="570.63" x2="758.1505" y1="84.2969" y2="84.2969"/></g><!--class CartService--><g class="entity" data-qualified-name="CartService" data-source-line="16" id="ent0005"><rect fill="#F1F1F1" height="48" rx="2.5" ry="2.5" style="stroke:#181818;stroke-width:0.5;" width="113.3408" x="654.72" y="176.7369"/><ellipse cx="669.72" cy="192.7369" fill="#ADD1B2" rx="11" ry="11" style="stroke:#181818;stroke-width:1;"/><path d="M672.6888,198.3775 Q672.1106,198.6744 671.47,198.815 Q670.8294,198.9713 670.1263,198.9713 Q667.6263,198.9713 666.2981,197.3306 Q664.9856,195.6744 664.9856,192.5494 Q664.9856,189.4244 666.2981,187.7681 Q667.6263,186.1119 670.1263,186.1119 Q670.8294,186.1119 671.47,186.2681 Q672.1263,186.4244 672.6888,186.7213 L672.6888,189.44 Q672.0638,188.8619 671.47,188.5963 Q670.8763,188.315 670.2513,188.315 Q668.9075,188.315 668.22,189.3931 Q667.5325,190.4556 667.5325,192.5494 Q667.5325,194.6431 668.22,195.7213 Q668.9075,196.7838 670.2513,196.7838 Q670.8763,196.7838 671.47,196.5181 Q672.0638,196.2369 672.6888,195.6588 L672.6888,198.3775 Z " fill="#000000"/><text fill="#000000" font-family="sans-serif" font-size="14" lengthAdjust="spacing" textLength="81.3408" x="683.72" y="197.5836">CartService</text><line style="stroke:#181818;stroke-width:0.5;" x1="655.72" x2="767.0608" y1="208.7369" y2="208.7369"/><line style="stroke:#181818;stroke-width:0.5;" x1="655.72" x2="767.0608" y1="216.7369" y2="216.7369"/></g><!--class CarrinhoItem--><g class="entity" data-qualified-name="CarrinhoItem" data-source-line="17" id="ent0006"><rect fill="#F1F1F1" height="48" rx="2.5" ry="2.5" style="stroke:#181818;stroke-width:0.5;" width="123.9365" x="52.43" y="454.8469"/><ellipse cx="67.43" cy="470.8469" fill="#ADD1B2" rx="11" ry="11" style="stroke:#181818;stroke-width:1;"/><path d="M70.3988,476.4875 Q69.8206,476.7844 69.18,476.925 Q68.5394,477.0813 67.8363,477.0813 Q65.3363,477.0813 64.0081,475.4406 Q62.6956,473.7844 62.6956,470.6594 Q62.6956,467.5344 64.0081,465.8781 Q65.3363,464.2219 67.8363,464.2219 Q68.5394,464.2219 69.18,464.3781 Q69.8363,464.5344 70.3988,464.8313 L70.3988,467.55 Q69.7738,466.9719 69.18,466.7063 Q68.5863,466.425 67.9613,466.425 Q66.6175,466.425 65.93,467.5031 Q65.2425,468.5656 65.2425,470.6594 Q65.2425,472.7531 65.93,473.8313 Q66.6175,474.8938 67.9613,474.8938 Q68.5863,474.8938 69.18,474.6281 Q69.7738,474.3469 70.3988,473.7688 L70.3988,476.4875 Z " fill="#000000"/><text fill="#000000" font-family="sans-serif" font-size="14" lengthAdjust="spacing" textLength="91.9365" x="81.43" y="475.6936">CarrinhoItem</text><line style="stroke:#181818;stroke-width:0.5;" x1="53.43" x2="175.3665" y1="486.8469" y2="486.8469"/><line style="stroke:#181818;stroke-width:0.5;" x1="53.43" x2="175.3665" y1="494.8469" y2="494.8469"/></g><!--class Produto--><g class="entity" data-qualified-name="Produto" data-source-line="18" id="ent0007"><rect fill="#F1F1F1" height="48" rx="2.5" ry="2.5" style="stroke:#181818;stroke-width:0.5;" width="86.5781" x="211.11" y="454.8469"/><ellipse cx="226.11" cy="470.8469" fill="#ADD1B2" rx="11" ry="11" style="stroke:#181818;stroke-width:1;"/><path d="M229.0788,476.4875 Q228.5006,476.7844 227.86,476.925 Q227.2194,477.0813 226.5163,477.0813 Q224.0163,477.0813 222.6881,475.4406 Q221.3756,473.7844 221.3756,470.6594 Q221.3756,467.5344 222.6881,465.8781 Q224.0163,464.2219 226.5163,464.2219 Q227.2194,464.2219 227.86,464.3781 Q228.5163,464.5344 229.0788,464.8313 L229.0788,467.55 Q228.4538,466.9719 227.86,466.7063 Q227.2663,466.425 226.6413,466.425 Q225.2975,466.425 224.61,467.5031 Q223.9225,468.5656 223.9225,470.6594 Q223.9225,472.7531 224.61,473.8313 Q225.2975,474.8938 226.6413,474.8938 Q227.2663,474.8938 227.86,474.6281 Q228.4538,474.3469 229.0788,473.7688 L229.0788,476.4875 Z " fill="#000000"/><text fill="#000000" font-family="sans-serif" font-size="14" lengthAdjust="spacing" textLength="54.5781" x="240.11" y="475.6936">Produto</text><line style="stroke:#181818;stroke-width:0.5;" x1="212.11" x2="296.6881" y1="486.8469" y2="486.8469"/><line style="stroke:#181818;stroke-width:0.5;" x1="212.11" x2="296.6881" y1="494.8469" y2="494.8469"/></g><!--class Pedido--><g class="entity" data-qualified-name="Pedido" data-source-line="19" id="ent0008"><rect fill="#F1F1F1" height="48" rx="2.5" ry="2.5" style="stroke:#181818;stroke-width:0.5;" width="79.2842" x="332.75" y="454.8469"/><ellipse cx="347.75" cy="470.8469" fill="#ADD1B2" rx="11" ry="11" style="stroke:#181818;stroke-width:1;"/><path d="M350.7188,476.4875 Q350.1406,476.7844 349.5,476.925 Q348.8594,477.0813 348.1563,477.0813 Q345.6563,477.0813 344.3281,475.4406 Q343.0156,473.7844 343.0156,470.6594 Q343.0156,467.5344 344.3281,465.8781 Q345.6563,464.2219 348.1563,464.2219 Q348.8594,464.2219 349.5,464.3781 Q350.1563,464.5344 350.7188,464.8313 L350.7188,467.55 Q350.0938,466.9719 349.5,466.7063 Q348.9063,466.425 348.2813,466.425 Q346.9375,466.425 346.25,467.5031 Q345.5625,468.5656 345.5625,470.6594 Q345.5625,472.7531 346.25,473.8313 Q346.9375,474.8938 348.2813,474.8938 Q348.9063,474.8938 349.5,474.6281 Q350.0938,474.3469 350.7188,473.7688 L350.7188,476.4875 Z " fill="#000000"/><text fill="#000000" font-family="sans-serif" font-size="14" lengthAdjust="spacing" textLength="47.2842" x="361.75" y="475.6936">Pedido</text><line style="stroke:#181818;stroke-width:0.5;" x1="333.75" x2="411.0342" y1="486.8469" y2="486.8469"/><line style="stroke:#181818;stroke-width:0.5;" x1="333.75" x2="411.0342" y1="494.8469" y2="494.8469"/></g><!--class PedidoItem--><g class="entity" data-qualified-name="PedidoItem" data-source-line="20" id="ent0009"><rect fill="#F1F1F1" height="48" rx="2.5" ry="2.5" style="stroke:#181818;stroke-width:0.5;" width="111.1533" x="446.82" y="454.8469"/><ellipse cx="461.82" cy="470.8469" fill="#ADD1B2" rx="11" ry="11" style="stroke:#181818;stroke-width:1;"/><path d="M464.7888,476.4875 Q464.2106,476.7844 463.57,476.925 Q462.9294,477.0813 462.2263,477.0813 Q459.7263,477.0813 458.3981,475.4406 Q457.0856,473.7844 457.0856,470.6594 Q457.0856,467.5344 458.3981,465.8781 Q459.7263,464.2219 462.2263,464.2219 Q462.9294,464.2219 463.57,464.3781 Q464.2263,464.5344 464.7888,464.8313 L464.7888,467.55 Q464.1638,466.9719 463.57,466.7063 Q462.9763,466.425 462.3513,466.425 Q461.0075,466.425 460.32,467.5031 Q459.6325,468.5656 459.6325,470.6594 Q459.6325,472.7531 460.32,473.8313 Q461.0075,474.8938 462.3513,474.8938 Q462.9763,474.8938 463.57,474.6281 Q464.1638,474.3469 464.7888,473.7688 L464.7888,476.4875 Z " fill="#000000"/><text fill="#000000" font-family="sans-serif" font-size="14" lengthAdjust="spacing" textLength="79.1533" x="475.82" y="475.6936">PedidoItem</text><line style="stroke:#181818;stroke-width:0.5;" x1="447.82" x2="556.9733" y1="486.8469" y2="486.8469"/><line style="stroke:#181818;stroke-width:0.5;" x1="447.82" x2="556.9733" y1="494.8469" y2="494.8469"/></g><g class="entity" data-qualified-name="GMN19" data-source-line="33" id="ent0020"><path d="M468.63,309.1869 L468.63,348.0169 L434.43,352.0169 L468.63,356.0169 L468.63,394.8509 A0,0 0 0 0 468.63,394.8509 L704.1617,394.8509 A0,0 0 0 0 704.1617,394.8509 L704.1617,319.1869 L694.1617,309.1869 L468.63,309.1869 A0,0 0 0 0 468.63,309.1869" fill="#FEFFDD" style="stroke:#181818;stroke-width:0.5;"/><path d="M694.1617,309.1869 L694.1617,319.1869 L704.1617,319.1869 L694.1617,309.1869" fill="#FEFFDD" style="stroke:#181818;stroke-width:0.5;"/><text fill="#000000" font-family="sans-serif" font-size="13" lengthAdjust="spacing" textLength="214.5317" x="474.63" y="326.2538">Centraliza valida&#231;&#227;o de carrinho,</text><text fill="#000000" font-family="sans-serif" font-size="13" lengthAdjust="spacing" textLength="183.917" x="474.63" y="341.3866">estoque, frete, split, pedido,</text><text fill="#000000" font-family="sans-serif" font-size="13" lengthAdjust="spacing" textLength="182.7998" x="474.63" y="356.5194">baixa de estoque e rastreio.</text><text fill="#000000" font-family="sans-serif" font-size="13" lengthAdjust="spacing" textLength="195.7744" x="474.63" y="371.6522">A finaliza&#231;&#227;o ocorre dentro de</text><text fill="#000000" font-family="sans-serif" font-size="13" lengthAdjust="spacing" textLength="122.916" x="474.63" y="386.785">transa&#231;&#227;o EF Core.</text></g><!--reverse link ICheckoutFacade to CheckoutFacade--><g class="link" data-entity-1="ent0001" data-entity-2="ent0002" data-link-type="extension" data-source-line="22" id="lnk10"><path codeLine="22" d="M313.4,267.3769 C313.4,287.3469 313.4,292.2869 313.4,311.3269" fill="none" id="ICheckoutFacade-backto-CheckoutFacade" style="stroke:#181818;stroke-width:1;stroke-dasharray:7,7;"/><polygon fill="none" points="313.4,249.3769,307.4,267.3769,319.4,267.3769,313.4,249.3769" style="stroke:#181818;stroke-width:1;stroke-linejoin:miter;stroke-miterlimit:10;"/></g><!--link CarrinhoController to ICheckoutFacade--><g class="link" data-entity-1="ent0003" data-entity-2="ent0001" data-link-type="dependency" data-source-line="23" id="lnk11"><path codeLine="23" d="M390.59,92.6169 C378.71,109.0969 365.2828,127.7302 350.6928,147.9802" fill="none" id="CarrinhoController-to-ICheckoutFacade" style="stroke:#181818;stroke-width:1;"/><polygon fill="#181818" points="347.77,152.0369,356.2765,147.0731,350.6928,147.9802,349.7857,142.3965,347.77,152.0369" style="stroke:#181818;stroke-width:1;stroke-linejoin:miter;stroke-miterlimit:10;"/></g><!--link ApiCheckoutController to ICheckoutFacade--><g class="link" data-entity-1="ent0004" data-entity-2="ent0001" data-link-type="dependency" data-source-line="24" id="lnk12"><path codeLine="24" d="M601.24,92.7669 C557.03,109.1969 501.087,129.9856 446.877,150.1256" fill="none" id="ApiCheckoutController-to-ICheckoutFacade" style="stroke:#181818;stroke-width:1;"/><polygon fill="#181818" points="442.19,151.8669,452.0196,152.4821,446.877,150.1256,449.2335,144.9829,442.19,151.8669" style="stroke:#181818;stroke-width:1;stroke-linejoin:miter;stroke-miterlimit:10;"/></g><!--link CarrinhoController to CartService--><g class="link" data-entity-1="ent0003" data-entity-2="ent0005" data-link-type="dependency" data-source-line="25" id="lnk13"><path codeLine="25" d="M485.85,92.7669 C531.16,107.5069 588.66,128.2569 637.4,152.2969 C651.36,159.1769 661.768,165.3511 674.258,173.6011" fill="none" id="CarrinhoController-to-CartService" style="stroke:#181818;stroke-width:1;"/><polygon fill="#181818" points="678.43,176.3569,673.1249,168.0589,674.258,173.6011,668.7157,174.7342,678.43,176.3569" style="stroke:#181818;stroke-width:1;stroke-linejoin:miter;stroke-miterlimit:10;"/></g><!--link ApiCheckoutController to CartService--><g class="link" data-entity-1="ent0004" data-entity-2="ent0005" data-link-type="dependency" data-source-line="26" id="lnk14"><path codeLine="26" d="M672.8,92.6169 C681.35,116.3569 692.8449,148.243 701.3749,171.913" fill="none" id="ApiCheckoutController-to-CartService" style="stroke:#181818;stroke-width:1;"/><polygon fill="#181818" points="703.07,176.6169,703.7818,166.7938,701.3749,171.913,696.2556,169.506,703.07,176.6169" style="stroke:#181818;stroke-width:1;stroke-linejoin:miter;stroke-miterlimit:10;"/></g><!--link CheckoutFacade to CarrinhoItem--><g class="link" data-entity-1="ent0002" data-entity-2="ent0006" data-link-type="dependency" data-source-line="27" id="lnk15"><path codeLine="27" d="M250.16,392.6869 C217.72,413.0269 183.5661,434.4607 155.8961,451.8107" fill="none" id="CheckoutFacade-to-CarrinhoItem" style="stroke:#181818;stroke-width:1;"/><polygon fill="#181818" points="151.66,454.4669,161.41,453.0746,155.8961,451.8107,157.1601,446.2968,151.66,454.4669" style="stroke:#181818;stroke-width:1;stroke-linejoin:miter;stroke-miterlimit:10;"/></g><!--link CheckoutFacade to Produto--><g class="link" data-entity-1="ent0002" data-entity-2="ent0007" data-link-type="dependency" data-source-line="28" id="lnk16"><path codeLine="28" d="M294.73,392.5169 C285.07,412.9369 275.7569,432.6565 267.5269,450.0665" fill="none" id="CheckoutFacade-to-Produto" style="stroke:#181818;stroke-width:1;"/><polygon fill="#181818" points="265.39,454.5869,272.8527,448.1597,267.5269,450.0665,265.62,444.7407,265.39,454.5869" style="stroke:#181818;stroke-width:1;stroke-linejoin:miter;stroke-miterlimit:10;"/></g><!--link CheckoutFacade to Pedido--><g class="link" data-entity-1="ent0002" data-entity-2="ent0008" data-link-type="dependency" data-source-line="29" id="lnk17"><path codeLine="29" d="M332.06,392.5169 C341.72,412.9369 351.0331,432.6565 359.2631,450.0665" fill="none" id="CheckoutFacade-to-Pedido" style="stroke:#181818;stroke-width:1;"/><polygon fill="#181818" points="361.4,454.5869,361.17,444.7407,359.2631,450.0665,353.9373,448.1597,361.4,454.5869" style="stroke:#181818;stroke-width:1;stroke-linejoin:miter;stroke-miterlimit:10;"/></g><!--link CheckoutFacade to PedidoItem--><g class="link" data-entity-1="ent0002" data-entity-2="ent0009" data-link-type="dependency" data-source-line="30" id="lnk18"><path codeLine="30" d="M373.46,392.6869 C404.26,413.0269 436.5473,434.3621 462.8273,451.7121" fill="none" id="CheckoutFacade-to-PedidoItem" style="stroke:#181818;stroke-width:1;"/><polygon fill="#181818" points="467,454.4669,461.693,446.1701,462.8273,451.7121,457.2854,452.8464,467,454.4669" style="stroke:#181818;stroke-width:1;stroke-linejoin:miter;stroke-miterlimit:10;"/></g><?plantuml-src TL9HJW8n4FtlAUOJ8-m1Y34XA0b_Hht0q1sWiNJMQPSWwcdyy21Sp5dO1LoMhxRpNj-yJbzooHDCq69EC83nakmRbyaO5nB972t1j2dMh4y3S3j6RqkFCX5ArBCeuiAI-s2fk1b2JjQjq9yJdmItV2Gg9oRTBIhAn0NqReioYX_1zifOeZX-NA7pAdYK5delAQQg52nvZybnUEKt2ghMU7ocMFfalesn7cE43ky3o_gsJHh2g2YyitkTXzduKEqmb6NPpPbYRQZY2tjFKWEZmZNTBZ2zb5v8rivIIsQQQ5MNdeJpCd5pejpb_mzxhcd_nzrNbhNUQIvDmc1mt_vAqscvatb5yFnTryNEMItpDNmQHGVUpAKBEWpfAdAOME1486wnJC3pYr6HUjr_DwnroN7tk_jXZV0fUaPZnng-FiohkFSXQcuqYCM-Hz_Cq6smkb7pGBkXvfiSPsO4ypfE1s6sB4BAhaQaYz7k8TRWumJ6B9GP2ZbKjly0?></g></svg>