<svg xmlns="http://www.w3.org/2000/svg" xmlns:xlink="http://www.w3.org/1999/xlink" contentStyleType="text/css" data-diagram-type="CLASS" height="496px" preserveAspectRatio="none" style="width:1055px;height:496px;background:#FFFFFF;" version="1.1" viewBox="0 0 1055 496" width="1055px" zoomAndPan="magnify"><?plantuml 1.2026.5?><defs/><g><g class="title" data-source-line="1"><text fill="#000000" font-family="sans-serif" font-size="14" font-weight="700" lengthAdjust="spacing" textLength="257.0654" x="395.6318" y="22.9951">Factory Method - Provedor de IA</text></g><!--class IAiRecommendationService--><g class="entity" data-qualified-name="IAiRecommendationService" data-source-line="3" id="ent0001"><rect fill="#F1F1F1" height="64.2969" rx="2.5" ry="2.5" style="stroke:#181818;stroke-width:0.5;" width="356.6748" x="327.61" y="292.8969"/><ellipse cx="405.2047" cy="308.8969" fill="#B4A7E5" rx="11" ry="11" style="stroke:#181818;stroke-width:1;"/><path d="M401.1266,304.6625 L401.1266,302.5062 L408.5172,302.5062 L408.5172,304.6625 L406.0485,304.6625 L406.0485,312.7406 L408.5172,312.7406 L408.5172,314.8969 L401.1266,314.8969 L401.1266,312.7406 L403.5954,312.7406 L403.5954,304.6625 L401.1266,304.6625 Z " fill="#000000"/><text fill="#000000" font-family="sans-serif" font-size="14" font-style="italic" lengthAdjust="spacing" textLength="192.9854" x="425.7047" y="313.7436">IAiRecommendationService</text><line style="stroke:#181818;stroke-width:0.5;" x1="328.61" x2="683.2848" y1="324.8969" y2="324.8969"/><line style="stroke:#181818;stroke-width:0.5;" x1="328.61" x2="683.2848" y1="332.8969" y2="332.8969"/><g data-visibility-modifier="PUBLIC_METHOD"><ellipse cx="338.61" cy="346.5453" fill="#84BE84" rx="3" ry="3" style="stroke:#038048;stroke-width:1;"/></g><text fill="#000000" font-family="sans-serif" font-size="14" lengthAdjust="spacing" textLength="330.6748" x="347.61" y="349.892">RecommendAsync(request, cancellationToken)</text></g><!--class IAiRecommendationServiceFactory--><g class="entity" data-qualified-name="IAiRecommendationServiceFactory" data-source-line="7" id="ent0002"><rect fill="#F1F1F1" height="64.2969" rx="2.5" ry="2.5" style="stroke:#181818;stroke-width:0.5;" width="285.9023" x="7" y="152.2969"/><ellipse cx="25.8215" cy="168.2969" fill="#B4A7E5" rx="11" ry="11" style="stroke:#181818;stroke-width:1;"/><path d="M21.7434,164.0625 L21.7434,161.9063 L29.134,161.9063 L29.134,164.0625 L26.6652,164.0625 L26.6652,172.1406 L29.134,172.1406 L29.134,174.2969 L21.7434,174.2969 L21.7434,172.1406 L24.2121,172.1406 L24.2121,164.0625 L21.7434,164.0625 Z " fill="#000000"/><text fill="#000000" font-family="sans-serif" font-size="14" font-style="italic" lengthAdjust="spacing" textLength="245.4102" x="40.6707" y="173.1436">IAiRecommendationServiceFactory</text><line style="stroke:#181818;stroke-width:0.5;" x1="8" x2="291.9023" y1="184.2969" y2="184.2969"/><line style="stroke:#181818;stroke-width:0.5;" x1="8" x2="291.9023" y1="192.2969" y2="192.2969"/><g data-visibility-modifier="PUBLIC_METHOD"><ellipse cx="18" cy="205.9453" fill="#84BE84" rx="3" ry="3" style="stroke:#038048;stroke-width:1;"/></g><text fill="#000000" font-family="sans-serif" font-size="14" lengthAdjust="spacing" textLength="259.9023" x="27" y="209.292">Create(): IAiRecommendationService</text></g><!--class AiRecommendationServiceFactory--><g class="entity" data-qualified-name="AiRecommendationServiceFactory" data-source-line="11" id="ent0003"><rect fill="#F1F1F1" height="96.8906" rx="2.5" ry="2.5" style="stroke:#181818;stroke-width:0.5;" width="285.9023" x="7" y="276.5969"/><ellipse cx="27.6795" cy="292.5969" fill="#ADD1B2" rx="11" ry="11" style="stroke:#181818;stroke-width:1;"/><path d="M30.6482,298.2375 Q30.0701,298.5344 29.4295,298.675 Q28.7889,298.8313 28.0857,298.8313 Q25.5857,298.8313 24.2576,297.1906 Q22.9451,295.5344 22.9451,292.4094 Q22.9451,289.2844 24.2576,287.6281 Q25.5857,285.9719 28.0857,285.9719 Q28.7889,285.9719 29.4295,286.1281 Q30.0857,286.2844 30.6482,286.5813 L30.6482,289.3 Q30.0232,288.7219 29.4295,288.4563 Q28.8357,288.175 28.2107,288.175 Q26.867,288.175 26.1795,289.2531 Q25.492,290.3156 25.492,292.4094 Q25.492,294.5031 26.1795,295.5813 Q26.867,296.6438 28.2107,296.6438 Q28.8357,296.6438 29.4295,296.3781 Q30.0232,296.0969 30.6482,295.5188 L30.6482,298.2375 Z " fill="#000000"/><text fill="#000000" font-family="sans-serif" font-size="14" lengthAdjust="spacing" textLength="241.2813" x="42.9416" y="297.4436">AiRecommendationServiceFactory</text><line style="stroke:#181818;stroke-width:0.5;" x1="8" x2="291.9023" y1="308.5969" y2="308.5969"/><g data-visibility-modifier="PRIVATE_FIELD"><rect fill="none" height="6" style="stroke:#C82930;stroke-width:1;" width="6" x="15" y="319.2453"/></g><text fill="#000000" font-family="sans-serif" font-size="14" lengthAdjust="spacing" textLength="201.1064" x="27" y="325.592">configuration: IConfiguration</text><g data-visibility-modifier="PRIVATE_FIELD"><rect fill="none" height="6" style="stroke:#C82930;stroke-width:1;" width="6" x="15" y="335.5422"/></g><text fill="#000000" font-family="sans-serif" font-size="14" lengthAdjust="spacing" textLength="231.5742" x="27" y="341.8889">serviceProvider: IServiceProvider</text><line style="stroke:#181818;stroke-width:0.5;" x1="8" x2="291.9023" y1="349.1906" y2="349.1906"/><g data-visibility-modifier="PUBLIC_METHOD"><ellipse cx="18" cy="362.8391" fill="#84BE84" rx="3" ry="3" style="stroke:#038048;stroke-width:1;"/></g><text fill="#000000" font-family="sans-serif" font-size="14" lengthAdjust="spacing" textLength="259.9023" x="27" y="366.1857">Create(): IAiRecommendationService</text></g><!--class LocalAiRecommendationService--><g class="entity" data-qualified-name="LocalAiRecommendationService" data-source-line="17" id="ent0004"><rect fill="#F1F1F1" height="48" rx="2.5" ry="2.5" style="stroke:#181818;stroke-width:0.5;" width="257.3877" x="52.26" y="433.4869"/><ellipse cx="67.26" cy="449.4869" fill="#ADD1B2" rx="11" ry="11" style="stroke:#181818;stroke-width:1;"/><path d="M70.2287,455.1275 Q69.6506,455.4244 69.01,455.565 Q68.3694,455.7213 67.6662,455.7213 Q65.1662,455.7213 63.8381,454.0806 Q62.5256,452.4244 62.5256,449.2994 Q62.5256,446.1744 63.8381,444.5181 Q65.1662,442.8619 67.6662,442.8619 Q68.3694,442.8619 69.01,443.0181 Q69.6662,443.1744 70.2287,443.4713 L70.2287,446.19 Q69.6037,445.6119 69.01,445.3463 Q68.4162,445.065 67.7912,445.065 Q66.4475,445.065 65.76,446.1431 Q65.0725,447.2056 65.0725,449.2994 Q65.0725,451.3931 65.76,452.4713 Q66.4475,453.5338 67.7912,453.5338 Q68.4162,453.5338 69.01,453.2681 Q69.6037,452.9869 70.2287,452.4088 L70.2287,455.1275 Z " fill="#000000"/><text fill="#000000" font-family="sans-serif" font-size="14" lengthAdjust="spacing" textLength="225.3877" x="81.26" y="454.3336">LocalAiRecommendationService</text><line style="stroke:#181818;stroke-width:0.5;" x1="53.26" x2="308.6477" y1="465.4869" y2="465.4869"/><line style="stroke:#181818;stroke-width:0.5;" x1="53.26" x2="308.6477" y1="473.4869" y2="473.4869"/></g><!--class OpenAiRecommendationService--><g class="entity" data-qualified-name="OpenAiRecommendationService" data-source-line="18" id="ent0005"><rect fill="#F1F1F1" height="48" rx="2.5" ry="2.5" style="stroke:#181818;stroke-width:0.5;" width="258.249" x="360.83" y="433.4869"/><ellipse cx="375.83" cy="449.4869" fill="#ADD1B2" rx="11" ry="11" style="stroke:#181818;stroke-width:1;"/><path d="M378.7988,455.1275 Q378.2206,455.4244 377.58,455.565 Q376.9394,455.7213 376.2363,455.7213 Q373.7363,455.7213 372.4081,454.0806 Q371.0956,452.4244 371.0956,449.2994 Q371.0956,446.1744 372.4081,444.5181 Q373.7363,442.8619 376.2363,442.8619 Q376.9394,442.8619 377.58,443.0181 Q378.2363,443.1744 378.7988,443.4713 L378.7988,446.19 Q378.1738,445.6119 377.58,445.3463 Q376.9863,445.065 376.3613,445.065 Q375.0175,445.065 374.33,446.1431 Q373.6425,447.2056 373.6425,449.2994 Q373.6425,451.3931 374.33,452.4713 Q375.0175,453.5338 376.3613,453.5338 Q376.9863,453.5338 377.58,453.2681 Q378.1738,452.9869 378.7988,452.4088 L378.7988,455.1275 Z " fill="#000000"/><text fill="#000000" font-family="sans-serif" font-size="14" lengthAdjust="spacing" textLength="226.249" x="389.83" y="454.3336">OpenAiRecommendationService</text><line style="stroke:#181818;stroke-width:0.5;" x1="361.83" x2="618.079" y1="465.4869" y2="465.4869"/><line style="stroke:#181818;stroke-width:0.5;" x1="361.83" x2="618.079" y1="473.4869" y2="473.4869"/></g><!--class ApiIaController--><g class="entity" data-qualified-name="ApiIaController" data-source-line="19" id="ent0006"><rect fill="#F1F1F1" height="48" rx="2.5" ry="2.5" style="stroke:#181818;stroke-width:0.5;" width="136.2344" x="81.83" y="44.2969"/><ellipse cx="96.83" cy="60.2969" fill="#ADD1B2" rx="11" ry="11" style="stroke:#181818;stroke-width:1;"/><path d="M99.7988,65.9375 Q99.2206,66.2344 98.58,66.375 Q97.9394,66.5313 97.2363,66.5313 Q94.7363,66.5313 93.4081,64.8906 Q92.0956,63.2344 92.0956,60.1094 Q92.0956,56.9844 93.4081,55.3281 Q94.7363,53.6719 97.2363,53.6719 Q97.9394,53.6719 98.58,53.8281 Q99.2363,53.9844 99.7988,54.2813 L99.7988,57 Q99.1738,56.4219 98.58,56.1563 Q97.9863,55.875 97.3613,55.875 Q96.0175,55.875 95.33,56.9531 Q94.6425,58.0156 94.6425,60.1094 Q94.6425,62.2031 95.33,63.2813 Q96.0175,64.3438 97.3613,64.3438 Q97.9863,64.3438 98.58,64.0781 Q99.1738,63.7969 99.7988,63.2188 L99.7988,65.9375 Z " fill="#000000"/><text fill="#000000" font-family="sans-serif" font-size="14" lengthAdjust="spacing" textLength="104.2344" x="110.83" y="65.1436">ApiIaController</text><line style="stroke:#181818;stroke-width:0.5;" x1="82.83" x2="217.0644" y1="76.2969" y2="76.2969"/><line style="stroke:#181818;stroke-width:0.5;" x1="82.83" x2="217.0644" y1="84.2969" y2="84.2969"/></g><g class="entity" data-qualified-name="GMN13" data-source-line="29" id="ent0014"><path d="M719.58,304.9069 L719.58,345.1725 L1040.329,345.1725 L1040.329,314.9069 L1030.329,304.9069 L719.58,304.9069" fill="#FEFFDD" style="stroke:#181818;stroke-width:0.5;"/><path d="M1030.329,304.9069 L1030.329,314.9069 L1040.329,314.9069 L1030.329,304.9069" fill="#FEFFDD" style="stroke:#181818;stroke-width:1;"/><text fill="#000000" font-family="sans-serif" font-size="13" lengthAdjust="spacing" textLength="299.749" x="725.58" y="321.9738">Escolhe OpenAI quando ha chave configurada</text><text fill="#000000" font-family="sans-serif" font-size="13" lengthAdjust="spacing" textLength="246.1875" x="725.58" y="337.1066">e fallback local quando nao ha chave.</text></g><!--reverse link IAiRecommendationService to LocalAiRecommendationService--><g class="link" data-entity-1="ent0001" data-entity-2="ent0004" data-link-type="extension" data-source-line="21" id="lnk7"><path codeLine="21" d="M410.575,364.3208 C352.615,387.5808 291.78,412.0069 239.29,433.0669" fill="none" id="IAiRecommendationService-backto-LocalAiRecommendationService" style="stroke:#181818;stroke-width:1;stroke-dasharray:7,7;"/><polygon fill="none" points="427.28,357.6169,408.3403,358.7524,412.8096,369.8891,427.28,357.6169" style="stroke:#181818;stroke-width:1;stroke-linejoin:miter;stroke-miterlimit:10;"/></g><!--reverse link IAiRecommendationService to OpenAiRecommendationService--><g class="link" data-entity-1="ent0001" data-entity-2="ent0005" data-link-type="extension" data-source-line="22" id="lnk8"><path codeLine="22" d="M499.8869,375.4828 C497.0169,398.8628 495.37,412.3069 492.79,433.3769" fill="none" id="IAiRecommendationService-backto-OpenAiRecommendationService" style="stroke:#181818;stroke-width:1;stroke-dasharray:7,7;"/><polygon fill="none" points="502.08,357.6169,493.9316,374.7517,505.8422,376.2138,502.08,357.6169" style="stroke:#181818;stroke-width:1;stroke-linejoin:miter;stroke-miterlimit:10;"/></g><!--reverse link IAiRecommendationServiceFactory to AiRecommendationServiceFactory--><g class="link" data-entity-1="ent0002" data-entity-2="ent0003" data-link-type="extension" data-source-line="23" id="lnk9"><path codeLine="23" d="M149.95,234.8969 C149.95,252.3869 149.95,256.5169 149.95,276.1169" fill="none" id="IAiRecommendationServiceFactory-backto-AiRecommendationServiceFactory" style="stroke:#181818;stroke-width:1;stroke-dasharray:7,7;"/><polygon fill="none" points="149.95,216.8969,143.95,234.8969,155.95,234.8969,149.95,216.8969" style="stroke:#181818;stroke-width:1;stroke-linejoin:miter;stroke-miterlimit:10;"/></g><!--link ApiIaController to IAiRecommendationServiceFactory--><g class="link" data-entity-1="ent0006" data-entity-2="ent0002" data-link-type="dependency" data-source-line="24" id="lnk10"><path codeLine="24" d="M149.95,92.6769 C149.95,109.7669 149.95,128.1369 149.95,146.8769" fill="none" id="ApiIaController-to-IAiRecommendationServiceFactory" style="stroke:#181818;stroke-width:1;"/><polygon fill="#181818" points="149.95,151.8769,153.95,142.8769,149.95,146.8769,145.95,142.8769,149.95,151.8769" style="stroke:#181818;stroke-width:1;stroke-linejoin:miter;stroke-miterlimit:10;"/></g><!--link AiRecommendationServiceFactory to LocalAiRecommendationService--><g class="link" data-entity-1="ent0003" data-entity-2="ent0004" data-link-type="dependency" data-source-line="25" id="lnk11"><path codeLine="25" d="M161.32,373.8769 C166.12,394.0869 170.3438,411.8424 174.2538,428.2924" fill="none" id="AiRecommendationServiceFactory-to-LocalAiRecommendationService" style="stroke:#181818;stroke-width:1;stroke-dasharray:7,7;"/><polygon fill="#181818" points="175.41,433.1569,177.2204,423.4758,174.2538,428.2924,169.4372,425.3258,175.41,433.1569" style="stroke:#181818;stroke-width:1;stroke-linejoin:miter;stroke-miterlimit:10;"/></g><!--link AiRecommendationServiceFactory to OpenAiRecommendationService--><g class="link" data-entity-1="ent0003" data-entity-2="ent0005" data-link-type="dependency" data-source-line="26" id="lnk12"><path codeLine="26" d="M274.62,373.8769 C327.31,394.0869 381.6017,414.916 424.4817,431.366" fill="none" id="AiRecommendationServiceFactory-to-OpenAiRecommendationService" style="stroke:#181818;stroke-width:1;stroke-dasharray:7,7;"/><polygon fill="#181818" points="429.15,433.1569,422.1798,426.1987,424.4817,431.366,419.3144,433.6679,429.15,433.1569" style="stroke:#181818;stroke-width:1;stroke-linejoin:miter;stroke-miterlimit:10;"/></g><!--link AiRecommendationServiceFactory to GMN13--><g class="link" data-entity-1="ent0003" data-entity-2="ent0014" data-link-type="association" data-source-line="29" id="lnk15"><path d="M241.01,276.1469 C268.06,264.0269 298.28,252.7569 327.45,246.5969 C482.7,213.8169 528.66,216.5069 684.45,246.5969 C741.54,257.6269 803.13,285.2169 841.61,304.5369" fill="none" id="AiRecommendationServiceFactory-GMN13" style="stroke:#181818;stroke-width:1;stroke-dasharray:7,7;"/></g><?plantuml-src bPBTQiCm38Nl_HIwRDcI1nYZ4Ce6WOsDTI-WsKfZwbgjxGJAjdUVaz3k1-9abxQ-StHaA-XW2EvH1dOdUAHGiu8CdXstfDY18YWB8RGDv2gKtKc_aEJzdgp2eDbkoBKw5ju5mDMbLFYJbGj7nuPyk0Q9Lf8nlU2LTsINudEEwpbORxvsX84MovjHl3EL1hs76NwPP5lfRUDw89gkVvuxm0-YxZ6q8XUHpU-R_wPwO8bcZ1gGfmFPD54ST8anQt1iJCmWHh_azYFFqptJqbIMgH_h3TAC-3C9PDbgQXF4HDiyNwKddg5FZIqi1mAdjtK0hgO6lFEIJKs3Omd71grYg15aZIt1PG4L2e8AZNb3kGFJvJ_35hy5kOXze4lm1G00?></g></svg>