<svg xmlns="http://www.w3.org/2000/svg" xmlns:xlink="http://www.w3.org/1999/xlink" contentStyleType="text/css" data-diagram-type="CLASS" height="388px" preserveAspectRatio="none" style="width:1014px;height:388px;background:#FFFFFF;" version="1.1" viewBox="0 0 1014 388" width="1014px" zoomAndPan="magnify"><?plantuml 1.2026.5?><defs/><g><g class="title" data-source-line="1"><text fill="#000000" font-family="sans-serif" font-size="14" font-weight="700" lengthAdjust="spacing" textLength="303.5361" x="352.2157" y="22.9951">Strategy - Recomenda&#231;&#227;o de produtos</text></g><!--class IProductRecommendationStrategy--><g class="entity" data-qualified-name="IProductRecommendationStrategy" data-source-line="3" id="ent0001"><rect fill="#F1F1F1" height="80.5938" rx="2.5" ry="2.5" style="stroke:#181818;stroke-width:0.5;" width="273.4727" x="319.33" y="184.8969"/><ellipse cx="334.33" cy="200.8969" fill="#B4A7E5" rx="11" ry="11" style="stroke:#181818;stroke-width:1;"/><path d="M330.2519,196.6625 L330.2519,194.5063 L337.6425,194.5063 L337.6425,196.6625 L335.1738,196.6625 L335.1738,204.7406 L337.6425,204.7406 L337.6425,206.8969 L330.2519,206.8969 L330.2519,204.7406 L332.7206,204.7406 L332.7206,196.6625 L330.2519,196.6625 Z " fill="#000000"/><text fill="#000000" font-family="sans-serif" font-size="14" font-style="italic" lengthAdjust="spacing" textLength="241.4727" x="348.33" y="205.7436">IProductRecommendationStrategy</text><line style="stroke:#181818;stroke-width:0.5;" x1="320.33" x2="591.8027" y1="216.8969" y2="216.8969"/><g data-visibility-modifier="PUBLIC_FIELD"><ellipse cx="330.33" cy="230.5453" fill="none" rx="3" ry="3" style="stroke:#038048;stroke-width:1;"/></g><text fill="#000000" font-family="sans-serif" font-size="14" lengthAdjust="spacing" textLength="90.6445" x="339.33" y="233.892">Nome: string</text><line style="stroke:#181818;stroke-width:0.5;" x1="320.33" x2="591.8027" y1="241.1938" y2="241.1938"/><g data-visibility-modifier="PUBLIC_METHOD"><ellipse cx="330.33" cy="254.8422" fill="#84BE84" rx="3" ry="3" style="stroke:#038048;stroke-width:1;"/></g><text fill="#000000" font-family="sans-serif" font-size="14" lengthAdjust="spacing" textLength="195.3096" x="339.33" y="258.1889">Score(produto, request): int</text></g><!--class ProductRecommendationService--><g class="entity" data-qualified-name="ProductRecommendationService" data-source-line="8" id="ent0002"><rect fill="#F1F1F1" height="80.5938" rx="2.5" ry="2.5" style="stroke:#181818;stroke-width:0.5;" width="458.7012" x="226.72" y="44.2969"/><ellipse cx="337.2708" cy="60.2969" fill="#ADD1B2" rx="11" ry="11" style="stroke:#181818;stroke-width:1;"/><path d="M340.2395,65.9375 Q339.6614,66.2344 339.0208,66.375 Q338.3802,66.5313 337.677,66.5313 Q335.177,66.5313 333.8489,64.8906 Q332.5364,63.2344 332.5364,60.1094 Q332.5364,56.9844 333.8489,55.3281 Q335.177,53.6719 337.677,53.6719 Q338.3802,53.6719 339.0208,53.8281 Q339.677,53.9844 340.2395,54.2813 L340.2395,57 Q339.6145,56.4219 339.0208,56.1563 Q338.427,55.875 337.802,55.875 Q336.4583,55.875 335.7708,56.9531 Q335.0833,58.0156 335.0833,60.1094 Q335.0833,62.2031 335.7708,63.2813 Q336.4583,64.3438 337.802,64.3438 Q338.427,64.3438 339.0208,64.0781 Q339.6145,63.7969 340.2395,63.2188 L340.2395,65.9375 Z " fill="#000000"/><text fill="#000000" font-family="sans-serif" font-size="14" lengthAdjust="spacing" textLength="229.0996" x="357.7708" y="65.1436">ProductRecommendationService</text><line style="stroke:#181818;stroke-width:0.5;" x1="227.72" x2="684.4212" y1="76.2969" y2="76.2969"/><g data-visibility-modifier="PRIVATE_FIELD"><rect fill="none" height="6" style="stroke:#C82930;stroke-width:1;" width="6" x="234.72" y="86.9453"/></g><text fill="#000000" font-family="sans-serif" font-size="14" lengthAdjust="spacing" textLength="432.7012" x="246.72" y="93.292">strategies: IEnumerable&lt;IProductRecommendationStrategy&gt;</text><line style="stroke:#181818;stroke-width:0.5;" x1="227.72" x2="684.4212" y1="100.5938" y2="100.5938"/><g data-visibility-modifier="PUBLIC_METHOD"><ellipse cx="237.72" cy="114.2422" fill="#84BE84" rx="3" ry="3" style="stroke:#038048;stroke-width:1;"/></g><text fill="#000000" font-family="sans-serif" font-size="14" lengthAdjust="spacing" textLength="370.3711" x="246.72" y="117.5889">RecommendAsync(request, limit, cancellationToken)</text></g><!--class SkinHairRecommendationStrategy--><g class="entity" data-qualified-name="SkinHairRecommendationStrategy" data-source-line="13" id="ent0003"><rect fill="#F1F1F1" height="48" rx="2.5" ry="2.5" style="stroke:#181818;stroke-width:0.5;" width="274.1426" x="7" y="325.4869"/><ellipse cx="22" cy="341.4869" fill="#ADD1B2" rx="11" ry="11" style="stroke:#181818;stroke-width:1;"/><path d="M24.9688,347.1275 Q24.3906,347.4244 23.75,347.565 Q23.1094,347.7213 22.4063,347.7213 Q19.9063,347.7213 18.5781,346.0806 Q17.2656,344.4244 17.2656,341.2994 Q17.2656,338.1744 18.5781,336.5181 Q19.9063,334.8619 22.4063,334.8619 Q23.1094,334.8619 23.75,335.0181 Q24.4063,335.1744 24.9688,335.4713 L24.9688,338.19 Q24.3438,337.6119 23.75,337.3463 Q23.1563,337.065 22.5313,337.065 Q21.1875,337.065 20.5,338.1431 Q19.8125,339.2056 19.8125,341.2994 Q19.8125,343.3931 20.5,344.4713 Q21.1875,345.5338 22.5313,345.5338 Q23.1563,345.5338 23.75,345.2681 Q24.3438,344.9869 24.9688,344.4088 L24.9688,347.1275 Z " fill="#000000"/><text fill="#000000" font-family="sans-serif" font-size="14" lengthAdjust="spacing" textLength="242.1426" x="36" y="346.3336">SkinHairRecommendationStrategy</text><line style="stroke:#181818;stroke-width:0.5;" x1="8" x2="280.1426" y1="357.4869" y2="357.4869"/><line style="stroke:#181818;stroke-width:0.5;" x1="8" x2="280.1426" y1="365.4869" y2="365.4869"/></g><!--class CategoryRecommendationStrategy--><g class="entity" data-qualified-name="CategoryRecommendationStrategy" data-source-line="14" id="ent0004"><rect fill="#F1F1F1" height="48" rx="2.5" ry="2.5" style="stroke:#181818;stroke-width:0.5;" width="279.584" x="316.28" y="325.4869"/><ellipse cx="331.28" cy="341.4869" fill="#ADD1B2" rx="11" ry="11" style="stroke:#181818;stroke-width:1;"/><path d="M334.2488,347.1275 Q333.6706,347.4244 333.03,347.565 Q332.3894,347.7213 331.6863,347.7213 Q329.1863,347.7213 327.8581,346.0806 Q326.5456,344.4244 326.5456,341.2994 Q326.5456,338.1744 327.8581,336.5181 Q329.1863,334.8619 331.6863,334.8619 Q332.3894,334.8619 333.03,335.0181 Q333.6863,335.1744 334.2488,335.4713 L334.2488,338.19 Q333.6238,337.6119 333.03,337.3463 Q332.4363,337.065 331.8113,337.065 Q330.4675,337.065 329.78,338.1431 Q329.0925,339.2056 329.0925,341.2994 Q329.0925,343.3931 329.78,344.4713 Q330.4675,345.5338 331.8113,345.5338 Q332.4363,345.5338 333.03,345.2681 Q333.6238,344.9869 334.2488,344.4088 L334.2488,347.1275 Z " fill="#000000"/><text fill="#000000" font-family="sans-serif" font-size="14" lengthAdjust="spacing" textLength="247.584" x="345.28" y="346.3336">CategoryRecommendationStrategy</text><line style="stroke:#181818;stroke-width:0.5;" x1="317.28" x2="594.864" y1="357.4869" y2="357.4869"/><line style="stroke:#181818;stroke-width:0.5;" x1="317.28" x2="594.864" y1="365.4869" y2="365.4869"/></g><!--class VeganPriceRecommendationStrategy--><g class="entity" data-qualified-name="VeganPriceRecommendationStrategy" data-source-line="15" id="ent0005"><rect fill="#F1F1F1" height="48" rx="2.5" ry="2.5" style="stroke:#181818;stroke-width:0.5;" width="294.5615" x="630.79" y="325.4869"/><ellipse cx="645.79" cy="341.4869" fill="#ADD1B2" rx="11" ry="11" style="stroke:#181818;stroke-width:1;"/><path d="M648.7588,347.1275 Q648.1806,347.4244 647.54,347.565 Q646.8994,347.7213 646.1963,347.7213 Q643.6963,347.7213 642.3681,346.0806 Q641.0556,344.4244 641.0556,341.2994 Q641.0556,338.1744 642.3681,336.5181 Q643.6963,334.8619 646.1963,334.8619 Q646.8994,334.8619 647.54,335.0181 Q648.1963,335.1744 648.7588,335.4713 L648.7588,338.19 Q648.1338,337.6119 647.54,337.3463 Q646.9463,337.065 646.3213,337.065 Q644.9775,337.065 644.29,338.1431 Q643.6025,339.2056 643.6025,341.2994 Q643.6025,343.3931 644.29,344.4713 Q644.9775,345.5338 646.3213,345.5338 Q646.9463,345.5338 647.54,345.2681 Q648.1338,344.9869 648.7588,344.4088 L648.7588,347.1275 Z " fill="#000000"/><text fill="#000000" font-family="sans-serif" font-size="14" lengthAdjust="spacing" textLength="262.5615" x="659.79" y="346.3336">VeganPriceRecommendationStrategy</text><line style="stroke:#181818;stroke-width:0.5;" x1="631.79" x2="924.3515" y1="357.4869" y2="357.4869"/><line style="stroke:#181818;stroke-width:0.5;" x1="631.79" x2="924.3515" y1="365.4869" y2="365.4869"/></g><g class="entity" data-qualified-name="GMN10" data-source-line="23" id="ent0011"><path d="M720.18,64.4669 L720.18,80.5969 L685.69,84.5969 L720.18,88.5969 L720.18,104.7325 A0,0 0 0 0 720.18,104.7325 L999.9676,104.7325 A0,0 0 0 0 999.9676,104.7325 L999.9676,74.4669 L989.9676,64.4669 L720.18,64.4669 A0,0 0 0 0 720.18,64.4669" fill="#FEFFDD" style="stroke:#181818;stroke-width:0.5;"/><path d="M989.9676,64.4669 L989.9676,74.4669 L999.9676,74.4669 L989.9676,64.4669" fill="#FEFFDD" style="stroke:#181818;stroke-width:0.5;"/><text fill="#000000" font-family="sans-serif" font-size="13" lengthAdjust="spacing" textLength="258.7876" x="726.18" y="81.5338">Combina estrat&#233;gias e ordena produtos</text><text fill="#000000" font-family="sans-serif" font-size="13" lengthAdjust="spacing" textLength="137.3252" x="726.18" y="96.6666">pelo score calculado.</text></g><!--reverse link ProductRecommendationService to IProductRecommendationStrategy--><g class="link" data-entity-1="ent0002" data-entity-2="ent0001" data-link-type="aggregation" data-source-line="17" id="lnk6"><path codeLine="17" d="M456.07,137.3069 C456.07,155.8669 456.07,165.9069 456.07,184.4669" fill="none" id="ProductRecommendationService-backto-IProductRecommendationStrategy" style="stroke:#181818;stroke-width:1;"/><polygon fill="none" points="456.07,125.3069,452.07,131.3069,456.07,137.3069,460.07,131.3069,456.07,125.3069" style="stroke:#181818;stroke-width:1;stroke-linejoin:miter;stroke-miterlimit:10;"/></g><!--reverse link IProductRecommendationStrategy to SkinHairRecommendationStrategy--><g class="link" data-entity-1="ent0001" data-entity-2="ent0003" data-link-type="extension" data-source-line="18" id="lnk7"><path codeLine="18" d="M338.0117,272.4663 C288.1917,291.9963 246.61,308.2969 203.96,325.0069" fill="none" id="IProductRecommendationStrategy-backto-SkinHairRecommendationStrategy" style="stroke:#181818;stroke-width:1;stroke-dasharray:7,7;"/><polygon fill="none" points="354.77,265.8969,335.8218,266.8802,340.2015,278.0525,354.77,265.8969" style="stroke:#181818;stroke-width:1;stroke-linejoin:miter;stroke-miterlimit:10;"/></g><!--reverse link IProductRecommendationStrategy to CategoryRecommendationStrategy--><g class="link" data-entity-1="ent0001" data-entity-2="ent0004" data-link-type="extension" data-source-line="19" id="lnk8"><path codeLine="19" d="M456.07,283.8969 C456.07,303.4269 456.07,308.2969 456.07,325.0069" fill="none" id="IProductRecommendationStrategy-backto-CategoryRecommendationStrategy" style="stroke:#181818;stroke-width:1;stroke-dasharray:7,7;"/><polygon fill="none" points="456.07,265.8969,450.07,283.8969,462.07,283.8969,456.07,265.8969" style="stroke:#181818;stroke-width:1;stroke-linejoin:miter;stroke-miterlimit:10;"/></g><!--reverse link IProductRecommendationStrategy to VeganPriceRecommendationStrategy--><g class="link" data-entity-1="ent0001" data-entity-2="ent0005" data-link-type="extension" data-source-line="20" id="lnk9"><path codeLine="20" d="M577.4467,272.2891 C628.8567,291.8191 672.25,308.2969 716.26,325.0069" fill="none" id="IProductRecommendationStrategy-backto-VeganPriceRecommendationStrategy" style="stroke:#181818;stroke-width:1;stroke-dasharray:7,7;"/><polygon fill="none" points="560.62,265.8969,575.316,277.898,579.5775,266.6802,560.62,265.8969" style="stroke:#181818;stroke-width:1;stroke-linejoin:miter;stroke-miterlimit:10;"/></g><?plantuml-src ZPB1JiCm38RlUGeVDx7s0QO92Kr8x88cXhXdgLUifV5mKgGAU1eEYEVeYv6Kgbn6krFavCzd-xS31Okm2w83bWray826AtI5Rh_QJuO2uIHSr86zKkG2oa4RXCqsNPhGgJjv87O3vaq1NDr7pX9y479bYdU61MSzRG62BpNwC5z2nAeFfOpLtiDvCCehnRI9c_dVB8H-2PjRLrSeUcznDLxJTIfXUBhnZJEpleG5MAee7aOxWzPs_nxvY6x-LzVkIEvEavodzw9r2bYQKT4Jbjfj9VRpZqoDUi1PDc6_cfZEwZtFf_gv137HxIM8QIyS1mIXyZa07qQtGwsvsfFJWDs6jDybQG_HC2amtWvhV4BBuDCone5RKrjTSAuY35Ak7m00?></g></svg>